<?xml version="1.0" encoding="UTF-8"?>
<svg width="243px" height="243px" viewBox="0 0 243 243" version="1.1" xmlns="http://www.w3.org/2000/svg" xmlns:xlink="http://www.w3.org/1999/xlink">
    <!-- Generator: Sketch 52.2 (67145) - http://www.bohemiancoding.com/sketch -->
    <title>dribbble</title>
    <desc>Created with Sketch.</desc>
    <g id="Page-1" stroke="none" stroke-width="1" fill="none" fill-rule="evenodd">
        <g id="dribbble" fill="#000000">
            <path d="M129.453,133.811 C107.062,140.546 88.483,163.737 81.202,173.916 C92.334,182.425 106.239,187.49 121.333,187.49 C130.098,187.49 138.458,185.77 146.113,182.674 C144.804,175.177 140.847,155.549 132.083,133.062 C131.208,133.299 130.331,133.547 129.453,133.811 Z" id="Path"></path>
            <path d="M116.314,99.719 C106.594,81.861 97.41,68.38 92.627,61.712 C74.626,70.395 61.175,86.995 56.753,106.989 C68.608,107.107 92.3,106.328 116.314,99.719 Z" id="Path"></path>
            <path d="M164.674,71.373 C153.063,61.292 137.917,55.176 121.334,55.176 C115.847,55.176 110.521,55.856 105.423,57.115 C109.297,62.533 119.515,77.243 129.645,95.333 C148.759,87.802 159.529,77.549 164.674,71.373 Z" id="Path"></path>
            <path d="M127.135,121.292 C126.437,119.747 125.725,118.198 124.98,116.645 C123.972,114.542 122.958,112.482 121.941,110.46 C93.867,118.328 65.59,119.666 55.213,119.882 C55.203,120.366 55.176,120.846 55.176,121.333 C55.176,137.633 61.082,152.546 70.856,164.077 C72.587,161.933 74.874,159.248 77.893,155.942 C87.281,145.66 99.984,130.133 127.135,121.292 Z" id="Path"></path>
            <path d="M0,36 L0,206.667 C2.4348735e-15,226.549251 16.117749,242.667 36,242.667 L206.667,242.667 C226.549251,242.667 242.667,226.549251 242.667,206.667 L242.667,36 C242.667,16.117749 226.549251,-3.65231026e-15 206.667,0 L36,0 C16.117749,3.65231026e-15 -2.4348735e-15,16.117749 0,36 Z M121.333,200.675 C77.514,200.675 41.991,165.152 41.991,121.333 C41.991,77.514 77.513,41.991 121.333,41.991 C165.152,41.991 200.675,77.513 200.675,121.333 C200.675,165.152 165.153,200.675 121.333,200.675 Z" id="Shape" fill-rule="nonzero"></path>
            <path d="M135.391,106.025 C136.113,107.429 136.831,108.842 137.536,110.267 C138.764,112.749 139.933,115.301 141.055,117.887 C158.956,115.088 177.394,117.651 187.447,119.607 C187.065,104.726 181.776,91.073 173.129,80.199 C168.037,86.343 156.402,97.791 135.391,106.025 Z" id="Path"></path>
            <path d="M145.984,130.328 C152.938,149.518 157.117,168.343 158.664,175.95 C173.342,165.898 183.76,150.088 186.664,131.772 C186.524,131.738 168.203,127.449 145.984,130.328 Z" id="Path"></path>
        </g>
    </g>
</svg>