<svg xmlns="http://www.w3.org/2000/svg" viewBox="0 0 254.42 254.42"><defs><style>.cls-1{fill:#ea0f68;}.cls-2{fill:#fff;}</style></defs><title>Asset 1</title><g id="Layer_2" data-name="Layer 2"><g id="Layer_1-2" data-name="Layer 1"><circle class="cls-1" cx="127.21" cy="127.21" r="127.21"/><path class="cls-2" d="M172.42,177.75a21.84,21.84,0,0,1-.71-43.67h.73a21.84,21.84,0,0,1,.71,43.67Zm0-39.78h-.6a17.93,17.93,0,1,0,.6,0Z"/><path class="cls-2" d="M172.43,193.94a38,38,0,1,1,38-38A38.08,38.08,0,0,1,172.43,193.94Zm0-72a33.95,33.95,0,1,0,33.95,33.95A34,34,0,0,0,172.43,122Z"/><path class="cls-2" d="M86.33,196.59l-3.54-2c6.54-11.33,11.64-29.9,15.62-56.78l.25-1.67,32.11-1.45.18,4.09L102.2,140C98.18,166.54,93,185.05,86.33,196.59Zm-16.55-4.37-3.47-2.16c8.71-14,11.89-33.35,14.46-48.91l0-.24-15.11.19L65.64,137l20-.25-.84,5.05C82.17,157.74,78.91,177.55,69.77,192.22Zm-4.91-67.07-.07-4.09,18.35-.31C85,89.54,79,60.86,79,60.57l4-.86c.06.3,6.37,30.63,4.14,63.2L87,124.78Zm35-1,.14-2.27a263.1,263.1,0,0,0-4.51-64.46l4-.86a268.34,268.34,0,0,1,4.72,63.3l25.16-1.14c2.2-28.48,9.48-55.5,10.95-60.72l3.94,1.11c-1.48,5.26-8.95,33-10.94,61.71l-.13,1.82Zm50.42-4.07-4.08-.33A324.82,324.82,0,0,1,156.7,62.11l3.94,1.1A320.46,320.46,0,0,0,150.32,120.08Z"/><path class="cls-2" d="M79,60.58c3.29-.76,12.29-2.53,20.56-4.16l.75,3.74L79.75,64.73Z"/><path class="cls-2" d="M65.66,141.08a178.5,178.5,0,0,1-.85-20l4-.08.74,20Z"/><path class="cls-2" d="M85.43,198c-2.88-.76-17.2-5.07-19.62-7.2l1.74-2.94c5.45,3.79,13,5.39,19.8,6.86A30.34,30.34,0,0,1,85.43,198Z"/><path class="cls-2" d="M159.45,67.63c-3.27-.84-12-3.43-20.1-5.8l1-3.86c8.19,2,17.65,4.25,20.31,5.24Z"/></g></g></svg>